<svg xmlns="http://www.w3.org/2000/svg" version="1.1" xmlns:xlink="http://www.w3.org/1999/xlink" xmlns:svgjs="http://svgjs.dev/svgjs" width="1440" height="556" preserveAspectRatio="none" viewBox="0 0 1440 556"><g mask="url(&quot;#SvgjsMask1111&quot;)" fill="none"><rect width="1440" height="556" x="0" y="0" fill="rgba(97, 141, 4, 1)"></rect><path d="M0,325.089C83.453,327.178,160.742,399.001,240.421,374.102C323.847,348.032,383.058,270.941,422.645,193.016C463.19,113.205,479.082,21.536,464.387,-66.769C449.869,-154.014,414.654,-246.316,341.312,-295.748C271.025,-343.122,175.325,-296.494,93.087,-317.025C15.986,-336.273,-41.283,-413.699,-120.707,-411.09C-206.703,-408.266,-299.129,-372.542,-349.105,-302.502C-398.49,-233.29,-365.864,-138.466,-375.509,-53.99C-384.796,27.345,-431.298,107.404,-404.75,184.843C-377.49,264.356,-312.23,334.735,-232.807,362.255C-157.019,388.516,-80.184,323.082,0,325.089" fill="#3f5c03"></path><path d="M1440 952.6469999999999C1521.548 964.358 1606.817 966.726 1681.211 931.331 1760.558 893.5799999999999 1831.72 831.432 1865.379 750.264 1898.607 670.135 1889.996 577.431 1862.016 495.323 1836.704 421.043 1775.499 368.358 1717.298 315.72 1665.312 268.704 1611.48 219.62 1542.632 206.46800000000002 1476.561 193.84699999999998 1414.345 230.305 1348.777 245.32299999999998 1278.133 261.504 1200.184 254.38099999999997 1142.412 298.139 1079.2440000000001 345.98400000000004 1038.621 418.74199999999996 1018.5930000000001 495.411 997.102 577.682 982.238 672.108 1025.62 745.241 1068.424 817.4010000000001 1164.525 830.35 1239.552 867.903 1305.763 901.043 1366.71 942.1220000000001 1440 952.6469999999999" fill="#83be05"></path></g><defs><mask id="SvgjsMask1111"><rect width="1440" height="556" fill="#ffffff"></rect></mask></defs></svg>